<?xml version="1.0" encoding="UTF-8"?>
<svg id="Layer_2" data-name="Layer 2" xmlns="http://www.w3.org/2000/svg" width="145.09375" height="207.47461" viewBox="0 0 145.09375 207.47461">
  <g id="Layer_1-2" data-name="Layer 1">
    <path d="M139.55762,131.11426l-.00879-.00879c-.20996-.20972-.43823-.3949-.65674-.59351,3.78271-5.42456,6.00928-12.01074,6.00928-19.1106,0-17.55859-13.5791-32.00586-30.78711-33.3916,11.18652-13.14746,10.57324-32.96484-1.8418-45.38086-12.41699-12.41699-32.23438-13.03125-45.38086-1.8418C65.50586,13.5791,51.05859,0,33.5,0,15.02832,0,0,15.02832,0,33.5v77.90137l.01074.67676c.01758.87305.06836,1.75.15332,2.61328l.00098.00781c.04688.47852.11426.94727.18848,1.41504l.04102.27441c.06934.51367.14746,1.02637.25586,1.57324.10156.50781.22363,1.00488.35352,1.50195l.07324.29199c.1084.44629.22266.89062.36621,1.36816.14941.49414.31836.97461.49414,1.4541l.10449.29102c.16016.45801.32715.91309.51367,1.36328.1875.45215.39355.89355.60449,1.33203l.11426.24121c.21484.46582.4375.92871.7002,1.41992.2168.4043.44922.79785.68848,1.18848l.15527.26172c.26172.44531.53027.8877.81934,1.32129.17041.25562.35596.49878.53638.74609-.09399.08789-.19604.16479-.28833.25488-3.6709,3.58594-5.69336,8.39551-5.69336,13.54492,0,2.03711.32031,4.15332.95117,6.28809l13.89062,40.66504c1.62891,4.79102,3.86914,8.40137,6.83594,11.02832,3.65039,3.23828,8.28516,4.9502,13.4043,4.9502h74.81738c5.12891,0,9.77832-1.7627,13.44629-5.09863,2.88184-2.62012,5.06738-6.14746,6.70801-10.8584l13.72559-40.14648.17578-.55273c.62793-2.13184.94629-4.24316.94629-6.27539,0-5.08594-1.96582-9.85449-5.53613-13.42871Z" fill="#fff" stroke-width="0"/>
    <g>
      <g>
        <path d="M35.27396,193.97438c-1.79964,0-3.28109-.51654-4.44331-1.54757-1.16429-1.03102-2.16948-2.78934-3.01558-5.27701l-13.7256-40.14578c-.2655-.89879-.39671-1.71906-.39671-2.46081,0-1.5331.54134-2.82859,1.62608-3.88648,1.08371-1.05788,2.44635-1.58682,4.08689-1.58682,2.74905,0,4.6272,1.50624,5.63239,4.52286l10.39389,32.13316h.23864l9.83809-32.13316c.95147-3.01662,2.82859-4.52286,5.63343-4.52286,1.63848,0,2.98769.52894,4.04557,1.58682s1.58682,2.35337,1.58682,3.88648c0,.74176-.13224,1.56203-.39671,2.46081l-13.7256,40.14578c-.84713,2.43395-1.85233,4.17987-3.01455,5.23775-1.16429,1.05788-2.61888,1.58682-4.36376,1.58682Z" fill="#412d5e" stroke-width="0"/>
        <path d="M49.71343,188.49902c0-.79341.1312-1.5331.39671-2.22114l14.59856-40.38546c1.58682-4.54765,4.25735-6.82251,8.01366-6.82251,3.80899,0,6.50639,2.27486,8.09321,6.82251l14.36095,40.38546c.26344.68804.39671,1.42773.39671,2.22114,0,1.58682-.5558,2.89678-1.66637,3.9278s-2.43395,1.54757-3.96706,1.54757c-2.75111,0-4.57555-1.37607-5.47433-4.12615l-2.22217-6.5849h-19.27948l-2.14262,6.5849c-.89982,2.75008-2.72425,4.12615-5.47433,4.12615-1.53517,0-2.85649-.51654-3.96706-1.54757s-1.66637-2.34098-1.66637-3.9278ZM66.29551,173.34569h12.69458l-6.18819-18.88484h-.23761l-6.26878,18.88484Z" fill="#412d5e" stroke-width="0"/>
        <path d="M110.09223,193.97438c-1.79861,0-3.28005-.51654-4.44228-1.54757-1.16429-1.03102-2.16948-2.78934-3.01558-5.27701l-13.7256-40.14578c-.2655-.89879-.39671-1.71906-.39671-2.46081,0-1.5331.54134-2.82859,1.62608-3.88648,1.08371-1.05788,2.44635-1.58682,4.08586-1.58682,2.75008,0,4.62823,1.50624,5.63343,4.52286l10.39389,32.13316h.23761l9.83913-32.13316c.95147-3.01662,2.82859-4.52286,5.63239-4.52286,1.63951,0,2.98769.52894,4.0466,1.58682,1.05788,1.05788,1.58682,2.35337,1.58682,3.88648,0,.74176-.13224,1.56203-.39671,2.46081l-13.7256,40.14578c-.84713,2.43395-1.85233,4.17987-3.01558,5.23775s-2.61784,1.58682-4.36376,1.58682Z" fill="#412d5e" stroke-width="0"/>
      </g>
      <g>
        <path d="M13.59948,109.43018c.03003-.30664.08716-.60425.13086-.90649.04956-.34302.08936-.68713.15674-1.02783.06763-.34058.16089-.6709.24561-1.00513.0752-.29858.14038-.59863.22974-.89429.09839-.32446.21997-.6377.33423-.95496.10693-.29846.20508-.59924.32666-.89343.12207-.29395.26514-.57593.40039-.86267.14404-.30542.27954-.61316.4397-.91248.14502-.27075.31055-.52808.46753-.79126.17725-.29736.34546-.59814.53955-.88794.18945-.28345.40112-.5498.60474-.82275.18652-.25024.3606-.50647.5603-.74963.37842-.46057.78052-.90027,1.19775-1.32507.04346-.04456.08008-.09326.12402-.13745l34.14258-34.14258v-29.61621c0-11.0459-8.9541-20-20-20s-20,8.9541-20,20v77.90137c0-.02966.00439-.05823.00464-.08789.00269-.62866.03345-1.25708.09497-1.8833Z" fill="#42b883" stroke-width="0"/>
        <path d="M15.86339,120.82983c-.15894-.29688-.29541-.60693-.4397-.91248.14404.30542.27954.61316.4397.91248Z" fill="#ef2d5e" stroke-width="0"/>
        <path d="M28.60875,130.7738c-.30615-.07703-.61572-.14453-.91602-.23547.30273.09155.61011.15857.91602.23547Z" fill="#ef2d5e" stroke-width="0"/>
        <path d="M24.99743,129.48401c-.31104-.14636-.62598-.28528-.92798-.44702.30444.16284.61743.30103.92798.44702Z" fill="#ef2d5e" stroke-width="0"/>
        <path d="M18.03551,124.08142c-.19775-.24097-.37378-.49939-.5603-.74963.18652.25024.3606.50647.5603.74963Z" fill="#ef2d5e" stroke-width="0"/>
        <path d="M81.78502,91.40137l20.94141-20.94141c7.80957-7.81055,7.80957-20.47461,0-28.28516-7.81055-7.81055-20.47461-7.81055-28.28516,0l-20.94141,20.94141v28.28516h28.28516Z" fill="#ef2d5e" stroke-width="0"/>
        <path d="M23.29357,128.57849c-.30273-.1803-.6106-.35291-.90283-.54846.29468.19727.60034.36853.90283.54846Z" fill="#ef2d5e" stroke-width="0"/>
        <path d="M21.58165,127.4353c-.25464-.18958-.51733-.3689-.76245-.57019.24731.20325.50781.38062.76245.57019Z" fill="#ef2d5e" stroke-width="0"/>
        <path d="M26.75426,130.21008c-.3042-.10913-.61255-.20972-.90967-.33301.29956.1239.60571.22424.90967.33301Z" fill="#ef2d5e" stroke-width="0"/>
        <path d="M16.87047,122.50903c-.19238-.28735-.36206-.59033-.53955-.88794.17725.29736.34546.59814.53955.88794Z" fill="#ef2d5e" stroke-width="0"/>
        <path d="M13.88707,115.30688c-.06665-.33765-.10693-.68433-.15674-1.02783.04956.34302.08936.68713.15674,1.02783Z" fill="#ef2d5e" stroke-width="0"/>
        <path d="M33.49987,131.40137c-.66626,0-1.32397-.03601-1.97363-.09961.65625.0647,1.31494.09961,1.97363.09961Z" fill="#ef2d5e" stroke-width="0"/>
        <path d="M15.0233,119.05469c-.12085-.29187-.21924-.59473-.32666-.89343.10693.29846.20508.59924.32666.89343Z" fill="#ef2d5e" stroke-width="0"/>
        <path d="M19.23327,125.40649c.04346.04456.08008.09326.12402.13745.04492.04492.09448.08179.13965.12622-.08887-.08716-.17651-.1748-.26367-.26367Z" fill="#ef2d5e" stroke-width="0"/>
        <path d="M13.59948,113.37256c-.06055-.61987-.09229-1.24805-.09497-1.8833.00269.62866.03345,1.25708.09497,1.8833Z" fill="#ef2d5e" stroke-width="0"/>
        <path d="M30.6527,131.17566c-.35498-.05066-.7124-.0929-1.06104-.16199.35181.06982.70679.11133,1.06104.16199Z" fill="#ef2d5e" stroke-width="0"/>
        <path d="M14.36242,117.2063c-.08862-.29321-.1543-.5957-.22974-.89429.0752.29858.14038.59863.22974.89429Z" fill="#ef2d5e" stroke-width="0"/>
        <path d="M18.03551,98.72131c-.19971.24316-.37378.49939-.5603.74963.18652-.25024.36255-.50867.5603-.74963Z" fill="#ef2d5e" stroke-width="0"/>
        <path d="M13.59948,109.43018c-.06152.62622-.09229,1.25464-.09497,1.8833.00269-.63525.03442-1.26343.09497-1.8833Z" fill="#ef2d5e" stroke-width="0"/>
        <path d="M13.88707,107.49585c-.06738.3407-.10718.68481-.15674,1.02783.0498-.34351.09009-.69019.15674-1.02783Z" fill="#ef2d5e" stroke-width="0"/>
        <path d="M16.87047,100.2937c-.19409.28979-.3623.59058-.53955.88794.17749-.29761.34717-.60059.53955-.88794Z" fill="#ef2d5e" stroke-width="0"/>
        <path d="M14.36242,105.59644c-.08936.29565-.15454.5957-.22974.89429.07544-.29858.14111-.60107.22974-.89429Z" fill="#ef2d5e" stroke-width="0"/>
        <path d="M15.0233,103.74805c-.12158.29419-.21973.59497-.32666.89343.10742-.29871.20581-.60156.32666-.89343Z" fill="#ef2d5e" stroke-width="0"/>
        <path d="M15.86339,101.9729c-.16016.29932-.29565.60706-.4397.91248.14429-.30554.28076-.6156.4397-.91248Z" fill="#ef2d5e" stroke-width="0"/>
        <path d="M19.23327,97.39624c3.62891-3.69653,8.67725-5.99487,14.2666-5.99487h20v-28.28516l-34.14258,34.14258c-.04395.04419-.08057.0929-.12402.13745Z" fill="#742d5e" stroke-width="0"/>
        <path d="M111.40123,91.40137h-29.61621l-34.14258,34.14258c-.04468.04492-.09424.08179-.1394.12622-.42407.41614-.86255.81763-1.32227,1.19495-.24731.20325-.50781.38062-.76245.57019-.26855.19995-.53027.4082-.80908.59473-.29468.19727-.60034.36853-.90283.54846-.2583.15381-.51025.31616-.77588.4585-.30444.16284-.61719.30103-.92798.44702-.28174.13269-.55835.27332-.84692.39307-.2998.1239-.60596.22424-.91016.33301-.31177.11194-.61938.23157-.93823.32825-.30273.09155-.61011.15857-.91602.23547-.3269.0824-.64966.17395-.98291.23987-.35181.06982-.70679.11133-1.06104.16199-.2915.04163-.57837.09705-.87354.1261-.65649.0647-1.31494.09961-1.97388.09961h77.90137c11.0459,0,20-8.9541,20-20s-8.9541-20-20-20Z" fill="#747bff" stroke-width="0"/>
        <path d="M31.52623,131.30176c-.29248-.02881-.58228-.08447-.87354-.1261.2915.04163.57812.09705.87354.1261Z" fill="#747bff" stroke-width="0"/>
        <path d="M14.13268,116.31201c-.08447-.33459-.17847-.66736-.24561-1.00513.06763.34058.16089.6709.24561,1.00513Z" fill="#747bff" stroke-width="0"/>
        <path d="M29.59166,131.01367c-.33032-.06543-.65576-.15759-.98291-.23987.3269.0824.6499.17395.98291.23987Z" fill="#747bff" stroke-width="0"/>
        <path d="M16.33092,121.62109c-.15698-.26343-.32373-.52246-.46753-.79126.14502.27075.31055.52808.46753.79126Z" fill="#747bff" stroke-width="0"/>
        <path d="M14.69664,118.16125c-.11401-.31775-.23682-.63293-.33423-.95496.09839.32446.21997.6377.33423.95496Z" fill="#747bff" stroke-width="0"/>
        <path d="M15.42369,119.91736c-.13501-.28699-.27954-.5708-.40039-.86267.12207.29395.26514.57593.40039.86267Z" fill="#747bff" stroke-width="0"/>
        <path d="M17.47521,123.33179c-.20386-.27319-.41675-.54175-.60474-.82275.18945.28345.40112.5498.60474.82275Z" fill="#747bff" stroke-width="0"/>
        <path d="M25.84459,129.87708c-.28662-.11853-.56519-.26062-.84717-.39307.28174.13269.55835.27332.84717.39307Z" fill="#747bff" stroke-width="0"/>
        <path d="M24.06945,129.03699c-.26343-.14099-.51758-.30481-.77588-.4585.25806.15381.51025.31616.77588.4585Z" fill="#747bff" stroke-width="0"/>
        <path d="M22.39074,128.03003c-.27612-.18494-.54028-.39453-.80908-.59473.26855.19995.53052.4082.80908.59473Z" fill="#747bff" stroke-width="0"/>
        <path d="M27.69274,130.53833c-.31641-.0957-.62598-.21655-.93848-.32825.31201.11194.61963.23157.93848.32825Z" fill="#747bff" stroke-width="0"/>
        <path d="M19.23327,125.40649c-.42114-.42871-.823-.86926-1.19775-1.32507.37842.46057.78052.90027,1.19775,1.32507Z" fill="#747bff" stroke-width="0"/>
        <path d="M20.8192,126.86511c-.45483-.37378-.89429-.77502-1.32227-1.19495.42407.41614.86255.81763,1.32227,1.19495Z" fill="#747bff" stroke-width="0"/>
        <path d="M42.00255,129.48401c-.28198.13245-.5603.27454-.84692.39307.28857-.11975.56519-.26038.84692-.39307Z" fill="#747bff" stroke-width="0"/>
        <path d="M16.33092,101.18164c-.15698.26318-.32251.52051-.46753.79126.1438-.2688.31055-.52783.46753-.79126Z" fill="#747bff" stroke-width="0"/>
        <path d="M17.47521,99.47095c-.20361.27295-.41528.53931-.60474.82275.18799-.28101.40088-.54956.60474-.82275Z" fill="#747bff" stroke-width="0"/>
        <path d="M15.42369,102.88538c-.13525.28674-.27832.56873-.40039.86267.12085-.29187.26538-.57568.40039-.86267Z" fill="#747bff" stroke-width="0"/>
        <path d="M19.23327,97.39624c-.41724.4248-.81934.8645-1.19775,1.32507.37476-.45581.77661-.89636,1.19775-1.32507Z" fill="#747bff" stroke-width="0"/>
        <path d="M38.39122,130.7738c-.32739.08228-.65259.17444-.98291.23987.33325-.06592.65601-.15747.98291-.23987Z" fill="#747bff" stroke-width="0"/>
        <path d="M36.34728,131.17566c-.29126.04163-.58105.09729-.87354.1261.29517-.02905.58203-.08447.87354-.1261Z" fill="#747bff" stroke-width="0"/>
        <path d="M14.69664,104.64148c-.11426.31726-.23584.63049-.33423.95496.09741-.32202.22021-.63721.33423-.95496Z" fill="#747bff" stroke-width="0"/>
        <path d="M13.50451,111.31348c-.00024.02966-.00464.05823-.00464.08789s.00439.05823.00464.08789c-.00024-.05859-.00024-.11719,0-.17578Z" fill="#747bff" stroke-width="0"/>
        <path d="M13.73034,108.52368c-.0437.30225-.10083.59985-.13086.90649.03003-.30359.08716-.60425.13086-.90649Z" fill="#747bff" stroke-width="0"/>
        <path d="M14.13268,106.49072c-.08472.33423-.17798.66455-.24561,1.00513.06714-.33777.16113-.67053.24561-1.00513Z" fill="#747bff" stroke-width="0"/>
        <path d="M43.70641,128.57849c-.2583.15369-.51221.3175-.77588.4585.26562-.14233.51758-.30469.77588-.4585Z" fill="#747bff" stroke-width="0"/>
        <path d="M47.50304,125.67017c-.42798.41992-.86743.82117-1.32227,1.19495.45972-.37732.89819-.77881,1.32227-1.19495Z" fill="#747bff" stroke-width="0"/>
        <path d="M40.24547,130.21008c-.31201.11169-.62183.23254-.93823.32825.31885-.09668.62646-.21631.93823-.32825Z" fill="#747bff" stroke-width="0"/>
        <path d="M13.73034,114.27905c-.0437-.30225-.10083-.60291-.13086-.90649.03003.30664.08716.60425.13086.90649Z" fill="#747bff" stroke-width="0"/>
        <path d="M45.41832,127.4353c-.2688.2002-.53296.40979-.80908.59473.27881-.18652.54053-.39478.80908-.59473Z" fill="#747bff" stroke-width="0"/>
        <path d="M44.60924,128.03003c-.29224.19556-.6001.36816-.90283.54846.30249-.17993.60815-.3512.90283-.54846Z" fill="#747bff" stroke-width="0"/>
        <path d="M33.49987,131.40137c.65894,0,1.31738-.03491,1.97388-.09961-.64966.0636-1.30737.09961-1.97388.09961Z" fill="#747bff" stroke-width="0"/>
        <path d="M46.18078,126.86511c-.24512.20129-.50781.38062-.76245.57019.25464-.18958.51514-.36694.76245-.57019Z" fill="#747bff" stroke-width="0"/>
        <path d="M37.40831,131.01367c-.34863.06909-.7063.11133-1.06104.16199.35425-.05066.70923-.09216,1.06104-.16199Z" fill="#747bff" stroke-width="0"/>
        <path d="M53.49987,111.40137c0,5.59058-2.29907,10.63953-5.99683,14.2688.04517-.04443.09473-.0813.1394-.12622l34.14258-34.14258h-28.28516v20Z" fill="#742d5e" stroke-width="0"/>
        <path d="M39.30724,130.53833c-.30029.09094-.60986.15845-.91602.23547.30591-.0769.61328-.14392.91602-.23547Z" fill="#747bff" stroke-width="0"/>
        <path d="M41.15563,129.87708c-.29736.12329-.60571.22388-.91016.33301.3042-.10876.61035-.20911.91016-.33301Z" fill="#747bff" stroke-width="0"/>
        <path d="M42.93053,129.03699c-.30176.16174-.61719.30066-.92798.44702.31079-.146.62354-.28418.92798-.44702Z" fill="#747bff" stroke-width="0"/>
        <path d="M36.34728,131.17566c.35474-.05066.7124-.0929,1.06104-.16199.33032-.06543.65552-.15759.98291-.23987.30615-.07703.61572-.14453.91602-.23547.31641-.0957.62622-.21655.93823-.32825.30444-.10913.61279-.20972.91016-.33301.28662-.11853.56494-.26062.84692-.39307.31079-.14636.62622-.28528.92798-.44702.26367-.14099.51758-.30481.77588-.4585.30273-.1803.6106-.35291.90283-.54846.27612-.18494.54028-.39453.80908-.59473.25464-.18958.51733-.3689.76245-.57019.45483-.37378.89429-.77502,1.32227-1.19495,3.69775-3.62927,5.99683-8.67822,5.99683-14.2688v-20h-20c-5.58936,0-10.6377,2.29834-14.2666,5.99487-.42114.42871-.823.86926-1.19775,1.32507-.19775.24097-.37378.49939-.5603.74963-.20386.27319-.41675.54175-.60474.82275-.19238.28735-.36206.59033-.53955.88794-.15698.26343-.32373.52246-.46753.79126-.15894.29688-.29541.60693-.4397.91248-.13501.28699-.27954.5708-.40039.86267s-.21924.59473-.32666.89343c-.11401.31775-.23682.63293-.33423.95496-.08862.29321-.1543.5957-.22974.89429-.08447.33459-.17847.66736-.24561,1.00513-.06665.33765-.10693.68433-.15674,1.02783-.0437.30225-.10083.60291-.13086.90649-.06055.61987-.09229,1.24805-.09497,1.8833-.00024.05859-.00024.11719,0,.17578.00269.63525.03442,1.26343.09497,1.8833.03003.30359.08716.60425.13086.90649.0498.34351.09009.69019.15674,1.02783.06714.33777.16113.67053.24561,1.00513.07544.29858.14111.60107.22974.89429.09741.32202.22021.63721.33423.95496.10742.29871.20581.60156.32666.89343s.26538.57568.40039.86267c.14429.30554.28076.6156.4397.91248.1438.2688.31055.52783.46753.79126.17749.29761.34717.60059.53955.88794.18799.28101.40088.54956.60474.82275.18652.25024.36255.50867.5603.74963.37476.45581.77661.89636,1.19775,1.32507.08716.08887.1748.17651.26367.26367.42798.41992.86743.82117,1.32227,1.19495.24512.20129.50781.38062.76245.57019.2688.2002.53296.40979.80908.59473.29224.19556.6001.36816.90283.54846.2583.15369.51245.3175.77588.4585.302.16174.61694.30066.92798.44702.28198.13245.56055.27454.84717.39307.29712.12329.60547.22388.90967.33301.3125.11169.62207.23254.93848.32825.30029.09094.60986.15845.91602.23547.32715.08228.65259.17444.98291.23987.34863.06909.70605.11133,1.06104.16199.29126.04163.58105.09729.87354.1261.64966.0636,1.30737.09961,1.97363.09961.6665,0,1.32422-.03601,1.97388-.09961.29248-.02881.58228-.08447.87354-.1261Z" fill="#422d5e" stroke-width="0"/>
      </g>
    </g>
  </g>
</svg>