{
  "accessors": [
    {
      "bufferView": 2,
      "componentType": 5126,
      "count": 4,
      "max": [1.0, 1.0, 0.0],
      "min": [-1.0, -1.0, 0.0],
      "type": "VEC3"
    },
    {
      "bufferView": 2,
      "byteOffset": 48,
      "componentType": 5126,
      "count": 4,
      "max": [0.0, 0.0, 1.0],
      "min": [0.0, 0.0, 1.0],
      "type": "VEC3"
    },
    {
      "bufferView": 1,
      "componentType": 5126,
      "count": 4,
      "max": [1.0, 1.0],
      "min": [0.0, 0.0],
      "type": "VEC2"
    },
    {
      "bufferView": 0,
      "componentType": 5125,
      "count": 6,
      "type": "SCALAR"
    },
    {
      "bufferView": 2,
      "byteOffset": 96,
      "componentType": 5126,
      "count": 2860,
      "max": [0.4833305776119232, 0.22509212791919708, 0.3445228636264801],
      "min": [-0.39656567573547363, -0.22509212791919708, 0.019070085138082504],
      "type": "VEC3"
    },
    {
      "bufferView": 2,
      "byteOffset": 34416,
      "componentType": 5126,
      "count": 2860,
      "max": [1.0, 1.0, 1.0],
      "min": [-1.0, -1.0, -1.0],
      "type": "VEC3"
    },
    {
      "bufferView": 1,
      "byteOffset": 32,
      "componentType": 5126,
      "count": 2860,
      "max": [0.9854417443275452, 0.9530290365219116],
      "min": [0.014558294788002968, 0.014558285474777222],
      "type": "VEC2"
    },
    {
      "bufferView": 0,
      "byteOffset": 24,
      "componentType": 5125,
      "count": 13062,
      "type": "SCALAR"
    },
    {
      "bufferView": 2,
      "byteOffset": 68736,
      "componentType": 5126,
      "count": 1164,
      "max": [0.3579159379005432, 0.2175675630569458, 0.15124283730983734],
      "min": [-0.3022250831127167, 0.1261819303035736, -0.000512824859470129],
      "type": "VEC3"
    },
    {
      "bufferView": 2,
      "byteOffset": 82704,
      "componentType": 5126,
      "count": 1164,
      "max": [0.9905806183815002, 1.0, 0.9905804395675659],
      "min": [-0.990580677986145, -1.0, -0.9905804395675659],
      "type": "VEC3"
    },
    {
      "bufferView": 1,
      "byteOffset": 22912,
      "componentType": 5126,
      "count": 1164,
      "max": [0.9788404107093811, 0.981107234954834],
      "min": [0.027611546218395233, 0.018892794847488403],
      "type": "VEC2"
    },
    {
      "bufferView": 0,
      "byteOffset": 52272,
      "componentType": 5125,
      "count": 5760,
      "type": "SCALAR"
    },
    {
      "bufferView": 2,
      "byteOffset": 96672,
      "componentType": 5126,
      "count": 1164,
      "max": [0.35776087641716003, -0.1261819452047348, 0.15124285221099854],
      "min": [-0.30222511291503906, -0.217567577958107, -0.000512824859470129],
      "type": "VEC3"
    },
    {
      "bufferView": 2,
      "byteOffset": 110640,
      "componentType": 5126,
      "count": 1164,
      "max": [0.990580677986145, 1.0, 0.9905803799629211],
      "min": [-0.990580677986145, -1.0, -0.9905804395675659],
      "type": "VEC3"
    },
    {
      "bufferView": 1,
      "byteOffset": 32224,
      "componentType": 5126,
      "count": 1164,
      "max": [0.9788404107093811, 0.981107234954834],
      "min": [0.027611546218395233, 0.018892794847488403],
      "type": "VEC2"
    },
    {
      "bufferView": 0,
      "byteOffset": 75312,
      "componentType": 5125,
      "count": 5760,
      "type": "SCALAR"
    }
  ],
  "asset": {
    "extras": {
      "author": "Split Studios (https://sketchfab.com/splitstudios)",
      "license": "CC-BY-4.0 (http://creativecommons.org/licenses/by/4.0/)",
      "source": "https://sketchfab.com/3d-models/stylized-beetle-car-0323feeb81e84e67a13acc964b6c609b",
      "title": "Stylized Beetle Car"
    },
    "generator": "Sketchfab-15.34.0",
    "version": "2.0"
  },
  "bufferViews": [
    {
      "buffer": 0,
      "byteLength": 98352,
      "name": "floatBufferViews",
      "target": 34963
    },
    {
      "buffer": 0,
      "byteLength": 41536,
      "byteOffset": 98352,
      "byteStride": 8,
      "name": "floatBufferViews",
      "target": 34962
    },
    {
      "buffer": 0,
      "byteLength": 124608,
      "byteOffset": 139888,
      "byteStride": 12,
      "name": "floatBufferViews",
      "target": 34962
    }
  ],
  "buffers": [
    {
      "byteLength": 264496,
      "uri": "scene.bin"
    }
  ],
  "extensionsUsed": ["KHR_materials_unlit", "KHR_materials_emissive_strength"],
  "images": [
    {
      "uri": "textures/Ground_baseColor.png"
    },
    {
      "uri": "textures/Ground_emissive.png"
    },
    {
      "uri": "textures/body_emissive.png"
    },
    {
      "uri": "textures/wheels_left_emissive.png"
    },
    {
      "uri": "textures/wheels_right_emissive.png"
    }
  ],
  "materials": [
    {
      "alphaMode": "BLEND",
      "emissiveFactor": [1.0, 1.0, 1.0],
      "emissiveTexture": {
        "index": 1
      },
      "extensions": {
        "KHR_materials_emissive_strength": {
          "emissiveStrength": 2.5
        },
        "KHR_materials_unlit": {}
      },
      "name": "Ground",
      "pbrMetallicRoughness": {
        "baseColorFactor": [0.0, 0.0, 0.0, 1.0],
        "baseColorTexture": {
          "index": 0
        },
        "metallicFactor": 0.0
      }
    },
    {
      "doubleSided": true,
      "emissiveFactor": [1.0, 1.0, 1.0],
      "emissiveTexture": {
        "index": 2
      },
      "extensions": {
        "KHR_materials_emissive_strength": {
          "emissiveStrength": 2.5
        },
        "KHR_materials_unlit": {}
      },
      "name": "body",
      "pbrMetallicRoughness": {
        "baseColorFactor": [0.0, 0.0, 0.0, 1.0],
        "metallicFactor": 0.0
      }
    },
    {
      "doubleSided": true,
      "emissiveFactor": [1.0, 1.0, 1.0],
      "emissiveTexture": {
        "index": 3
      },
      "extensions": {
        "KHR_materials_emissive_strength": {
          "emissiveStrength": 2.5
        },
        "KHR_materials_unlit": {}
      },
      "name": "wheels_left",
      "pbrMetallicRoughness": {
        "baseColorFactor": [0.0, 0.0, 0.0, 1.0],
        "metallicFactor": 0.0
      }
    },
    {
      "doubleSided": true,
      "emissiveFactor": [1.0, 1.0, 1.0],
      "emissiveTexture": {
        "index": 4
      },
      "extensions": {
        "KHR_materials_emissive_strength": {
          "emissiveStrength": 2.5
        },
        "KHR_materials_unlit": {}
      },
      "name": "wheels_right",
      "pbrMetallicRoughness": {
        "baseColorFactor": [0.0, 0.0, 0.0, 1.0],
        "metallicFactor": 0.0
      }
    }
  ],
  "meshes": [
    {
      "name": "Plane.007_Ground_0",
      "primitives": [
        {
          "attributes": {
            "NORMAL": 1,
            "POSITION": 0,
            "TEXCOORD_0": 2
          },
          "indices": 3,
          "material": 0,
          "mode": 4
        }
      ]
    },
    {
      "name": "Plane.007_body_0",
      "primitives": [
        {
          "attributes": {
            "NORMAL": 5,
            "POSITION": 4,
            "TEXCOORD_0": 6
          },
          "indices": 7,
          "material": 1,
          "mode": 4
        }
      ]
    },
    {
      "name": "Plane.007_wheels_left_0",
      "primitives": [
        {
          "attributes": {
            "NORMAL": 9,
            "POSITION": 8,
            "TEXCOORD_0": 10
          },
          "indices": 11,
          "material": 2,
          "mode": 4
        }
      ]
    },
    {
      "name": "Plane.007_wheels_right_0",
      "primitives": [
        {
          "attributes": {
            "NORMAL": 13,
            "POSITION": 12,
            "TEXCOORD_0": 14
          },
          "indices": 15,
          "material": 3,
          "mode": 4
        }
      ]
    }
  ],
  "nodes": [
    {
      "children": [1],
      "matrix": [
        0.5350735783576965, 0.0, 0.0, 0.0, 0.0, 1.188102013122575e-16,
        -0.5350735783576965, 0.0, 0.0, 0.5350735783576965,
        1.188102013122575e-16, 0.0, 0.0, 0.0, 0.0, 1.0
      ],
      "name": "Sketchfab_model"
    },
    {
      "children": [2],
      "matrix": [
        0.009999999776482582, 0.0, 0.0, 0.0, 0.0, 0.0, 0.009999999776482582,
        0.0, 0.0, -0.009999999776482582, 0.0, 0.0, 0.0, 0.0, 0.0, 1.0
      ],
      "name": "beetle_psd-layers.fbx"
    },
    {
      "children": [3, 8],
      "name": "RootNode"
    },
    {
      "children": [4, 5, 6, 7],
      "matrix": [
        793.1900024414063, 0.0, 0.0, 0.0, 0.0, -0.00012922705408456234,
        -793.1900024413958, 0.0, 0.0, 793.1900024413958,
        -0.00012922705408456234, 0.0, 0.0, 0.0, 0.0, 1.0
      ],
      "name": "Plane.007"
    },
    {
      "mesh": 0,
      "name": "Plane.007_Ground_0"
    },
    {
      "mesh": 1,
      "name": "Plane.007_body_0"
    },
    {
      "mesh": 2,
      "name": "Plane.007_wheels_left_0"
    },
    {
      "mesh": 3,
      "name": "Plane.007_wheels_right_0"
    },
    {
      "children": [9],
      "matrix": [
        62.231430101044154, -45.70685444846208, -63.54632653241261, 0.0,
        31.98030028014711, 88.9431576960436, -32.65542250419228, 0.0,
        71.44585949862771, -0.00036961208668140344, 69.96777229814978, 0.0,
        -676.070068359375, 520.6739501953125, 686.4022827148438, 1.0
      ],
      "name": "render"
    },
    {
      "name": "Object_9"
    }
  ],
  "samplers": [
    {
      "magFilter": 9729,
      "minFilter": 9987,
      "wrapS": 10497,
      "wrapT": 10497
    }
  ],
  "scene": 0,
  "scenes": [
    {
      "name": "Sketchfab_Scene",
      "nodes": [0]
    }
  ],
  "textures": [
    {
      "sampler": 0,
      "source": 0
    },
    {
      "sampler": 0,
      "source": 1
    },
    {
      "sampler": 0,
      "source": 2
    },
    {
      "sampler": 0,
      "source": 3
    },
    {
      "sampler": 0,
      "source": 4
    }
  ]
}
